<svg id="Glyph" enable-background="new 0 0 64 64" height="512" viewBox="0 0 64 64" width="512" xmlns="http://www.w3.org/2000/svg"><g fill="rgb(0,0,0)"><path d="m2 11h10l-5-8z"/><path d="m4 29.49v-4.99c0-2.481 2.019-4.5 4.5-4.5s4.5 2.019 4.5 4.5v4.99c1.819-1.369 3-3.538 3-5.99 0-4.142-3.358-7.5-7.5-7.5s-7.5 3.358-7.5 7.5c0 2.451 1.181 4.621 3 5.99z"/><path d="m23.5 34c-1.381 0-2.5 1.119-2.5 2.5 0-1.381-1.119-2.5-2.5-2.5s-2.5 1.119-2.5 2.5c0-1.381-1.119-2.5-2.5-2.5s-2.5 1.119-2.5 2.5v-12c0-1.381-1.119-2.5-2.5-2.5s-2.5 1.119-2.5 2.5v17.5l-3 3v10l3 3v4h18v-2l2-2v-21.5c0-1.381-1.119-2.5-2.5-2.5z"/><path d="m32.985 21.14c-.607-.297-1.2-.592-1.775-.887l-.911 1.781c.585.299 1.188.6 1.806.902z"/><path d="m29.904 41.93 1.998.08c.027-.67.053-1.342.072-2.011l-1.999-.057c-.019.662-.045 1.326-.071 1.988z"/><path d="m34.484 1.098c-.715-.164-1.432-.271-2.131-.32l-.137 1.996c.595.04 1.208.133 1.82.273z"/><path d="m34.25 22.341h2v2.001h-2z" transform="matrix(.432 -.902 .902 .432 -1.023 45.06)"/><path d="m31.932 35.91-1.996.127c.041.637.06 1.285.063 1.94l2-.012c-.004-.694-.024-1.381-.067-2.055z"/><path d="m26.009 2.189c-.64.376-1.237.821-1.776 1.323l1.364 1.463c.432-.402.911-.76 1.424-1.062z"/><path d="m29.471 19.33c-.589-.326-1.152-.653-1.683-.983l-1.056 1.699c.56.348 1.152.692 1.772 1.034z"/><path d="m24.103 24.088c-.601-.299-1.243-.584-1.907-.846l-.734 1.859c.611.242 1.201.503 1.751.777z"/><path d="m37.48 4.364.999-1.732c-.345-.199-.703-.381-1.075-.547-.295-.13-.588-.251-.879-.361l-.711 1.869c.259.099.52.206.78.321.307.136.602.286.886.45z"/><path d="m30.174.823c-.739.083-1.461.239-2.147.462l.619 1.902c.558-.182 1.148-.309 1.754-.378z"/><path d="m50.932 20.867-1.545 1.27c.473.576.97 1.1 1.478 1.557l1.338-1.486c-.434-.392-.862-.842-1.271-1.341z"/><path d="m55.262 24.033c-.562-.191-1.104-.444-1.614-.75l-1.029 1.715c.63.378 1.302.69 1.997.928z"/><path d="m48.966 29.743-1.155 1.633c.201.142.4.285.597.43.331.243.654.488.969.734l1.232-1.574c-.331-.26-.67-.517-1.017-.771-.207-.153-.416-.302-.626-.452z"/><path d="m53.639 36.495c.435.484.852.982 1.24 1.48l1.577-1.23c-.417-.533-.863-1.067-1.328-1.586z"/><path d="m23.67 14.708c-.308-.492-.517-.998-.623-1.505l-1.958.41c.154.737.452 1.463.885 2.155z"/><path d="m56.005 39.537c.357.538.691 1.088.992 1.637l1.753-.963c-.328-.597-.691-1.196-1.08-1.781z"/><path d="m60.399 44.07c-.201-.656-.446-1.321-.729-1.979l-1.837.791c.253.59.474 1.187.654 1.773z"/><path d="m47.897 15.957c-.297-.587-.589-1.182-.881-1.779l-1.798.877c.296.607.593 1.212.896 1.807z"/><path d="m44.219 8.775c-.379-.639-.748-1.21-1.126-1.747l-1.634 1.154c.348.493.688 1.021 1.041 1.614z"/><path d="m43.779 26.519c-.592-.329-1.188-.649-1.784-.962l-.929 1.771c.582.305 1.163.617 1.741.938z"/><path d="m47.073 18.667c.367.654.717 1.234 1.072 1.773l1.671-1.1c-.328-.498-.654-1.039-.998-1.652z"/><path d="m41.787 5.373c-.491-.553-1.007-1.057-1.533-1.498l-1.284 1.533c.451.378.896.812 1.321 1.293z"/><path d="m46.136 12.377c-.3-.609-.605-1.214-.919-1.81l-1.769.934c.305.578.601 1.167.894 1.761z"/><path d="m40.199 24.635c-.604-.304-1.208-.601-1.806-.892l-.874 1.799c.591.287 1.186.58 1.783.88z"/><path d="m50.875 33.779c.497.435.972.874 1.425 1.319l1.401-1.428c-.48-.471-.983-.938-1.51-1.397z"/><path d="m44.917 60.291c-.483.016-.988-.023-1.477-.074l-.203 1.99c.549.056 1.105.084 1.653.084.151-.003.314-.002.473-.006l-.056-2c-.13.004-.259.006-.39.006z"/><path d="m45.541 27.53-1.022 1.719c.563.335 1.121.679 1.67 1.033l1.084-1.68c-.571-.368-1.149-.725-1.732-1.072z"/><path d="m35.377 59.124c.564.434 1.166.83 1.788 1.179l.979-1.744c-.539-.303-1.06-.646-1.548-1.021z"/><path d="m32.401 56.05c.413.578.875 1.133 1.375 1.648l1.436-1.393c-.43-.443-.829-.921-1.183-1.418z"/><path d="m39.098 61.216c.657.256 1.342.47 2.038.636l.465-1.945c-.607-.145-1.205-.331-1.777-.554z"/><path d="m26.202 17.271c-.541-.403-1.018-.808-1.418-1.203l-1.405 1.424c.466.459 1.013.925 1.628 1.383z"/><path d="m58.927 46.479c.109.623.175 1.244.195 1.848l1.999-.066c-.023-.696-.098-1.412-.224-2.127z"/><path d="m50.875 59.214.659 1.889c.677-.236 1.333-.506 1.95-.801l-.863-1.805c-.551.264-1.139.505-1.746.717z"/><path d="m58.653 51.941 1.909.596c.213-.685.368-1.398.46-2.123l-1.984-.252c-.077.609-.207 1.207-.385 1.779z"/><path d="m56.965 55.134 1.568 1.24c.453-.572.854-1.187 1.191-1.825l-1.769-.934c-.279.531-.612 1.041-.99 1.519z"/><path d="m54.247 57.583 1.094 1.674c.612-.399 1.186-.839 1.707-1.306l-1.335-1.488c-.446.398-.939.775-1.466 1.12z"/><path d="m47.817 60.017c-.213.04-.426.075-.638.106l.294 1.979c.235-.035.472-.074.712-.119.458-.086.904-.183 1.338-.288l-.474-1.943c-.399.097-.811.186-1.232.265z"/><path d="m19.644 24.464.59-1.91c-1.205-.373-2.011-.529-2.045-.536l-.378 1.964c.007.001.742.145 1.833.482z"/><path d="m29.232 27.865-1.529 1.289c.37.438.696.935.971 1.475l1.783-.906c-.344-.677-.756-1.302-1.225-1.858z"/><path d="m24.871 26.805c.547.344 1.06.711 1.524 1.092l1.268-1.547c-.529-.434-1.11-.85-1.727-1.238z"/><path d="m20.907 11.408 2 .018c.005-.614.065-1.222.178-1.806l-1.964-.379c-.136.703-.208 1.432-.214 2.167z"/><path d="m32.388 51.608-1.908.6c.214.681.486 1.354.81 2l1.788-.896c-.276-.551-.508-1.124-.69-1.704z"/><path d="m24.44 6.322-1.65-1.129c-.413.603-.764 1.257-1.045 1.943l1.851.758c.227-.556.511-1.084.844-1.572z"/><path d="m31.823 44.004-1.999-.07c-.023.685-.042 1.362-.045 2.029l2 .012c.004-.648.021-1.306.044-1.971z"/><path d="m31.814 47.921-1.998.096c.037.76.098 1.441.188 2.084l1.98-.279c-.081-.581-.137-1.203-.17-1.901z"/><path d="m31.253 31.75-1.919.564c.164.557.298 1.17.399 1.823l1.977-.307c-.115-.738-.269-1.438-.457-2.08z"/><path d="m61 2h-2v1.364l-10 3.636 10 3.636v17.364h-4v2h8v-2h-2z"/><path d="m35.414 13 2.293-2.293-1.414-1.414-2.293 2.293-2.293-2.293-1.414 1.414 2.293 2.293-2.293 2.293 1.414 1.414 2.293-2.293 2.293 2.293 1.414-1.414z"/><path d="m52.293 39.293-2.293 2.293-2.293-2.293-1.414 1.414 2.293 2.293-2.293 2.293 1.414 1.414 2.293-2.293 2.293 2.293 1.414-1.414-2.293-2.293 2.293-2.293z"/><circle cx="41" cy="51" r="4"/></g></svg>