<svg id="Capa_1" enable-background="new 0 0 512 512" height="512" viewBox="0 0 512 512" width="512" xmlns="http://www.w3.org/2000/svg"><g><path d="m264.033 96.955-76.231 47.645h152.463z"/><path d="m182.634 174.6h34.267v114.601h-34.267z"/><path d="m246.9 174.6h34.267v114.601h-34.267z"/><path d="m456.833 0h-337.399c-43.708 0-79.267 35.559-79.267 79.267v383.467c0-43.708 35.559-79.267 79.267-79.267h337.399c8.284 0 15-6.716 15-15v-353.467c0-8.284-6.716-15-15-15zm-64.267 319.2h-257.066c-19.881-.738-19.866-29.269 0-30h17.134v-114.6h-17.134c-6.691 0-12.574-4.433-14.419-10.865s.795-13.309 6.469-16.854l128.533-80.333c4.865-3.041 11.035-3.041 15.9 0l128.533 80.333c5.674 3.546 8.313 10.423 6.469 16.854-1.845 6.433-7.728 10.865-14.419 10.865h-17.133v114.6h17.133c19.881.738 19.866 29.27 0 30z"/><path d="m311.167 174.6h34.267v114.601h-34.267z"/><path d="m119.434 447.733h311.199c1.896-9.484 5.576-18.47 10.888-26.546 2.18-3.314-.22-7.721-4.187-7.721h-317.074c-65.914 2.271-66.533 95.776-.827 98.533h317.901c3.967 0 6.366-4.407 4.187-7.721-5.312-8.076-8.992-17.061-10.888-26.546h-311.199c-19.881-.736-19.866-29.268 0-29.999z"/></g></svg>