<svg id="Layer_1" height="512" viewBox="0 0 512 512" width="512" xmlns="http://www.w3.org/2000/svg" data-name="Layer 1"><g fill="rgb(0,0,0)"><path d="m255.85 287a31.66 31.66 0 0 1 -22.53-9.34l-39.32-39.28a65.49 65.49 0 1 0 46.6-44.87l38.43 38.43c12.45 12.45 12.35 32.83-.28 45.53a32.35 32.35 0 0 1 -22.9 9.53z"/><path d="m122.76 167.12a159.24 159.24 0 0 0 -27 88.88c0 88.37 71.9 160.26 160.26 160.26s160.23-71.89 160.23-160.26-71.89-160.26-160.25-160.26a159.19 159.19 0 0 0 -87.17 26l36.36 36.37a109.45 109.45 0 0 1 50.81-12.57 110.76 110.76 0 1 1 -97 57.82z"/><path d="m256 0a254.16 254.16 0 0 0 -127.08 34l34.61 34.6a30.87 30.87 0 0 1 2.14 2.4 204.52 204.52 0 0 1 90.33-21c113.59 0 206 92.41 206 206s-92.42 206-206 206-206-92.42-206-206a204.65 204.65 0 0 1 22-92.23c-.65-.55-1.39-1-2-1.61l-35-35a254.2 254.2 0 0 0 -35 128.84c0 141.16 114.84 256 256 256s256-114.84 256-256-114.84-256-256-256z"/><path d="m87 145.19a8.31 8.31 0 0 0 5.51 2.11 6.11 6.11 0 0 0 1.23-.12l35.43-7.65 121.12 121.17a7.82 7.82 0 0 0 5.56 2.32 8.47 8.47 0 0 0 6-2.56 8.07 8.07 0 0 0 .24-11.55l-121.18-121.17 7.64-35.43a8.2 8.2 0 0 0 -2-6.74l-42.93-42.94a2.66 2.66 0 0 0 -1.81-.92c-.87 0-1.58.7-1.86 2l-7.63 35.43-15.95-15.94a8 8 0 0 0 -11.32 0l-.23.24-.24.24a8 8 0 0 0 0 11.31l15.94 16-35.43 7.59c-2.16.46-2.64 2.1-1.08 3.67z"/></g></svg>