<?xml version="1.0" encoding="UTF-8"?>
<svg xmlns="http://www.w3.org/2000/svg" viewBox="0 0 64 64" width="512" height="512"><g id="_14-Monitoring" data-name="14-Monitoring"><path d="M33.1,13.99l-4.99-2.14a5.03973,5.03973,0,0,0,.79-1.84l4.99,2.14A5.03932,5.03932,0,0,0,33.1,13.99ZM47.73,8.78A5.0003,5.0003,0,0,1,46.51,7.2l-5.24,4.02a5.00036,5.00036,0,0,1,1.22,1.58ZM15.28,18.41l5.8-5.35a5.02941,5.02941,0,0,1-1.36-1.47l-5.8,5.35A5.02924,5.02924,0,0,1,15.28,18.41ZM5,50a1.003,1.003,0,0,1-1-1V3A1,1,0,0,0,2,3V49a3.00887,3.00887,0,0,0,3,3H24.18a2.86789,2.86789,0,0,1,0-2Zm25-6.77V21a2.99594,2.99594,0,0,0-3-3H24a2.996,2.996,0,0,0-3,3V48h4.43A28.26525,28.26525,0,0,1,30,43.23ZM17,31a3,3,0,0,0-3-3H11a3,3,0,0,0-3,3V48h9Zm26-6a2.99594,2.99594,0,0,0-3-3H37a2.996,2.996,0,0,0-3,3V40.53a21.07857,21.07857,0,0,1,9-2.5Zm4,13.22a21.621,21.621,0,0,1,9,3.52V17a2.99594,2.99594,0,0,0-3-3H50a2.996,2.996,0,0,0-3,3ZM51,8a3,3,0,1,0-3-3A3.00328,3.00328,0,0,0,51,8ZM38,18a3,3,0,1,0-3-3A3.00328,3.00328,0,0,0,38,18ZM11,24a3,3,0,1,0-3-3A3.00328,3.00328,0,0,0,11,24ZM24,12a3,3,0,1,0-3-3A3.00328,3.00328,0,0,0,24,12ZM44,47a4,4,0,1,0,4,4A4.00427,4.00427,0,0,0,44,47Zm17.85742,4.51465C61.60059,51.94238,55.43457,62,44,62S26.39941,51.94238,26.14258,51.51465a1.00087,1.00087,0,0,1,0-1.0293C26.39941,50.05762,32.56543,40,44,40S61.60059,50.05762,61.85742,50.48535A1.00087,1.00087,0,0,1,61.85742,51.51465ZM50,51a6,6,0,1,0-6,6A6.00657,6.00657,0,0,0,50,51Z"/></g></svg>
